<?xml version="1.0" encoding="utf-8"?>
<!-- Generator: Adobe Illustrator 22.1.0, SVG Export Plug-In . SVG Version: 6.00 Build 0)  -->
<svg version="1.1" id="Layer_1" xmlns="http://www.w3.org/2000/svg" xmlns:xlink="http://www.w3.org/1999/xlink" x="0px" y="0px"
	 viewBox="0 0 347 347" enable-background="new 0 0 347 347" xml:space="preserve">
<path id="Forma_1" opacity="0.3" fill="#FFFFFF" enable-background="new    " d="M341.2,52.1h-69.4c-3.2,0-5.8,2.6-5.8,5.8
	c0,0,0,0,0,0v92.5c0,12.8,10.4,23.1,23.1,23.1h11.6v81c0,9.6-7.8,17.3-17.3,17.3h-28.9V28.9c0-16-13-28.9-28.9-28.9H40.5
	c-16,0-28.9,13-28.9,28.9v271.8H5.8c-3.2,0-5.8,2.6-5.8,5.8c0,0,0,0,0,0v34.7c0,3.2,2.6,5.8,5.8,5.8c0,0,0,0,0,0h254.5
	c3.2,0,5.8-2.6,5.8-5.8c0,0,0,0,0,0v-34.7c0-3.2-2.6-5.8-5.8-5.8c0,0,0,0,0,0h-5.8v-17.3h28.9c16,0,28.9-12.9,28.9-28.9v-81h11.6
	c12.8,0,23.1-10.4,23.1-23.1V57.8C347,54.6,344.4,52.1,341.2,52.1C341.2,52.1,341.2,52.1,341.2,52.1z M254.5,335.4H11.6v-23.1h5.8
	c3.2,0,5.8-2.6,5.8-5.8c0,0,0,0,0,0V28.9c0-9.6,7.8-17.3,17.4-17.4h185.1c9.6,0,17.3,7.8,17.3,17.4v277.6c0,3.2,2.6,5.8,5.8,5.8
	c0,0,0,0,0,0h5.8V335.4z M335.4,150.4c0,6.4-5.2,11.6-11.6,11.6h-34.7c-6.4,0-11.6-5.2-11.6-11.6v-23.1h57.8V150.4z M335.4,115.7
	h-57.8V63.6h57.8V115.7z M289.2,75.2h11.6v28.9h-11.6V75.2z M312.3,75.2h11.6v28.9h-11.6V75.2z M190.8,69.4h-5.8V57.8
	c0-3.2-2.6-5.8-5.8-5.8c0,0,0,0,0,0H75.2c-3.2,0-5.8,2.6-5.8,5.8c0,0,0,0,0,0v57.8c0,3.2,2.6,5.8,5.8,5.8c0,0,0,0,0,0h104.1
	c3.2,0,5.8-2.6,5.8-5.8c0,0,0,0,0,0v-11.6h5.8c3.2,0,5.8-2.6,5.8-5.8c0,0,0,0,0,0V75.2C196.6,72,194,69.4,190.8,69.4
	C190.9,69.4,190.9,69.4,190.8,69.4L190.8,69.4z M185.1,92.5h-5.8c-3.2,0-5.8,2.6-5.8,5.8c0,0,0,0,0,0v11.6H81V63.6h92.5v11.6
	c0,3.2,2.6,5.8,5.8,5.8c0,0,0,0,0,0h5.8L185.1,92.5L185.1,92.5z M92.5,75.2h11.6v23.1H92.5L92.5,75.2L92.5,75.2z M115.7,75.2h11.6
	v23.1h-11.6L115.7,75.2L115.7,75.2z M138.8,75.2h11.6v23.1h-11.6L138.8,75.2L138.8,75.2z M219.8,28.9H46.3c-3.2,0-5.8,2.6-5.8,5.8
	c0,0,0,0,0,0v104.1c0,3.2,2.6,5.8,5.8,5.8c0,0,0,0,0,0h173.5c3.2,0,5.8-2.6,5.8-5.8c0,0,0,0,0,0V34.7
	C225.5,31.5,223,28.9,219.8,28.9C219.8,28.9,219.8,28.9,219.8,28.9L219.8,28.9z M214,133H52V40.5H214L214,133L214,133z M214,156.2
	h11.6v11.6H214L214,156.2L214,156.2z M190.8,156.2h11.6v11.6h-11.6L190.8,156.2L190.8,156.2z M167.7,156.2h11.6v11.6h-11.6
	L167.7,156.2L167.7,156.2z M178.6,222.9c-1-1.9-3-3.1-5.1-3.1h-23.1v-52.1c0-3.2-2.6-5.8-5.8-5.8c-1.9,0-3.7,0.9-4.8,2.5l-52,75.2
	c-1.8,2.6-1.2,6.2,1.5,8.1c1,0.7,2.1,1,3.3,1h23.1v52.1c0,2.5,1.6,4.8,4.1,5.5c0.6,0.2,1.1,0.3,1.7,0.3c1.9,0,3.7-0.9,4.8-2.5
	l52-75.2C179.5,227.1,179.6,224.8,178.6,222.9L178.6,222.9z M127.2,282.2v-39.3c0-3.2-2.6-5.8-5.8-5.8c0,0,0,0,0,0h-17.9l35.2-50.9
	v39.3c0,3.2,2.6,5.8,5.8,5.8c0,0,0,0,0,0h17.9L127.2,282.2z"/>
</svg>
