<?xml version="1.0" encoding="utf-8"?>
<!-- Generator: Adobe Illustrator 22.1.0, SVG Export Plug-In . SVG Version: 6.00 Build 0)  -->
<svg version="1.1" id="Layer_1" xmlns="http://www.w3.org/2000/svg" xmlns:xlink="http://www.w3.org/1999/xlink" x="0px" y="0px"
	 viewBox="0 0 347 347" enable-background="new 0 0 347 347" xml:space="preserve">
<path opacity="0.3" fill="#FFFFFF" enable-background="new    " d="M101.8,201.3c1.5-1.1,2.3-2.8,2.3-4.6V69.4
	c0-3.2-2.6-5.8-5.8-5.8c0,0,0,0,0,0H5.8c-3.2,0-5.8,2.6-5.8,5.8c0,0,0,0,0,0v127.2c0,1.8,0.9,3.5,2.3,4.6l44,33v9
	c-28.6,3.2-49.1,28.9-45.9,57.5c3.2,28.6,28.9,49.1,57.5,45.9c28.6-3.2,49.1-28.9,45.9-57.5c-2.7-24.2-21.8-43.2-45.9-45.9v-9
	L101.8,201.3z M81,75.2h11.6v118.6L81,202.4V75.2z M23.1,202.4l-11.6-8.7V75.2h11.6V202.4z M92.5,295c0,22.4-18.1,40.5-40.5,40.5
	S11.6,317.3,11.6,295c0-22.4,18.1-40.5,40.5-40.5l0,0C74.4,254.5,92.5,272.6,92.5,295L92.5,295z M52.1,224.1l-17.3-13V75.2h34.7
	v135.9L52.1,224.1z M228.8,137.8c1.6-1.1,2.6-2.9,2.6-4.8V5.8c0-3.2-2.6-5.8-5.8-5.8c0,0,0,0,0,0H121.5c-3.2,0-5.8,2.6-5.8,5.8
	c0,0,0,0,0,0V133c0,1.9,1,3.7,2.6,4.8l49.5,33v18.4L152.9,214h-31.4c-3.2,0-5.8,2.6-5.8,5.8c0,1.3,0.4,2.6,1.3,3.6l20.3,25.3
	L116.9,274c-2,2.5-1.6,6.1,0.9,8.1c1,0.8,2.3,1.3,3.6,1.3h31.4l15.7,26.1c1.6,2.7,5.2,3.6,7.9,2c0.8-0.5,1.5-1.2,2-2l15.7-26.1h31.4
	c3.2,0,5.8-2.6,5.8-5.8c0-1.3-0.4-2.6-1.3-3.6l-20.3-25.3l20.3-25.3c2-2.5,1.6-6.1-0.9-8.1c-1-0.8-2.3-1.3-3.6-1.3h-31.4l-14.8-24.7
	v-18.4L228.8,137.8z M208.2,11.6h11.6v118.3l-11.6,7.7V11.6L208.2,11.6z M138.8,137.6l-11.6-7.7V11.6h11.6V137.6L138.8,137.6z
	 M185.9,222.7c1,1.7,2.9,2.8,5,2.8h22.7l-15.6,19.5c-1.7,2.1-1.7,5.1,0,7.2l15.6,19.5h-22.7c-2,0-3.9,1.1-5,2.8l-12.4,20.7
	l-12.4-20.7c-1-1.7-2.9-2.8-5-2.8h-22.7l15.6-19.5c1.7-2.1,1.7-5.1,0-7.2l-15.6-19.5h22.7c2,0,3.9-1.1,5-2.8l12.4-20.7L185.9,222.7z
	 M173.5,160.8l-23.1-15.4V11.6h46.3v133.8L173.5,160.8z M52.1,266c-16,0-28.9,12.9-28.9,28.9s12.9,28.9,28.9,28.9
	c16,0,28.9-12.9,28.9-28.9C80.9,279,68,266.1,52.1,266L52.1,266z M52.1,312.3c-9.6,0-17.3-7.8-17.3-17.3c0-9.6,7.8-17.3,17.3-17.3
	c9.6,0,17.3,7.8,17.3,17.3l0,0C69.4,304.5,61.6,312.3,52.1,312.3L52.1,312.3z M344.7,201.3c1.5-1.1,2.3-2.8,2.3-4.6V69.4
	c0-3.2-2.6-5.8-5.8-5.8c0,0,0,0,0,0h-92.5c-3.2,0-5.8,2.6-5.8,5.8c0,0,0,0,0,0v127.2c0,1.8,0.9,3.5,2.3,4.6l44,33v9
	c-28.6,3.2-49.1,28.9-45.9,57.5c3.2,28.6,28.9,49.1,57.5,45.9c28.6-3.2,49.1-28.9,45.9-57.5c-2.7-24.2-21.8-43.2-45.9-45.9v-9
	L344.7,201.3z M323.9,75.2h11.6v118.6l-11.6,8.7V75.2L323.9,75.2z M266,202.4l-11.6-8.7V75.2H266V202.4L266,202.4z M335.4,295
	c0,22.4-18.1,40.5-40.5,40.5s-40.5-18.1-40.5-40.5c0-22.4,18.1-40.5,40.5-40.5l0,0C317.3,254.5,335.4,272.6,335.4,295L335.4,295z
	 M295,224.1l-17.3-13V75.2h34.7v135.9L295,224.1z M295,266C279,266,266,279,266,295s12.9,28.9,28.9,28.9c16,0,28.9-12.9,28.9-28.9
	C323.8,279,310.9,266.1,295,266L295,266z M295,312.3c-9.6,0-17.3-7.8-17.3-17.3c0-9.6,7.8-17.3,17.3-17.3c9.6,0,17.3,7.8,17.3,17.3
	l0,0C312.3,304.5,304.5,312.3,295,312.3L295,312.3z M190.9,323.9h11.6v11.6h-11.6V323.9z M167.7,323.9h11.6v11.6h-11.6V323.9z
	 M144.6,323.9h11.6v11.6h-11.6V323.9z M167.7,23.1h11.6v11.6h-11.6V23.1z M167.7,46.3h11.6v11.6h-11.6V46.3z M167.7,69.4h11.6V81
	h-11.6V69.4L167.7,69.4z M167.7,92.5h11.6v11.6h-11.6V92.5z M167.7,115.7h11.6v11.6h-11.6V115.7z M167.7,138.8h11.6v11.6h-11.6
	V138.8L167.7,138.8z M312.3,40.5h11.6v11.6h-11.6L312.3,40.5L312.3,40.5z M289.2,40.5h11.6v11.6h-11.6V40.5z M266,40.5h11.6v11.6
	H266V40.5z M69.4,40.5H81v11.6H69.4L69.4,40.5L69.4,40.5z M46.3,40.5h11.6v11.6H46.3V40.5z M23.1,40.5h11.6v11.6H23.1V40.5z"/>
</svg>
