<?xml version="1.0" encoding="utf-8"?>
<!-- Generator: Adobe Illustrator 22.1.0, SVG Export Plug-In . SVG Version: 6.00 Build 0)  -->
<svg version="1.1" id="Layer_1" xmlns="http://www.w3.org/2000/svg" xmlns:xlink="http://www.w3.org/1999/xlink" x="0px" y="0px"
	 viewBox="0 0 348 348" enable-background="new 0 0 348 348" xml:space="preserve">
<path opacity="0.3" fill="#FFFFFF" enable-background="new    " d="M321.1,24C304,7.5,280.8-1.1,257.1,0.1
	c-44.6,2.1-80.9,38.5-82.6,83.1c-0.9,21.9,6.6,43.4,20.9,60c14.6,16.9,22.6,39.3,22.6,63.2v5.1h81.4l5.1,0v-5.1
	c0.1-23.5,8.4-46.3,23.6-64.3C357.1,107,354.1,55.4,321.1,24z M320.1,135.4c-15.5,18.5-24.6,41.6-25.8,65.7h-66.2
	c-1.1-24.4-9.8-47.2-25-64.7c-27.6-32.1-23.9-80.4,8.2-108s80.4-23.9,108,8.2C343.6,65,343.9,106.7,320.1,135.4z M217.6,217.5h86.9
	v10.2h-86.9V217.5z M228.5,233.9h65.7v10.3h-65.7V233.9z M239.5,250.3v10.3h5.7v0.1c0,6.9,4.4,13,10.9,15.2v47.4
	c0,7.7-6.3,13.9-13.9,13.9c-7.7,0-13.9-6.2-13.9-13.9v-21.8c-0.2-7.3-6.3-13.1-13.7-12.9c-7.1,0.2-12.7,5.9-12.9,12.9
	c0,1.7-1.4,3-3,3c0,0,0,0,0,0H185v10.2h13.6c7.3,0,13.3-5.9,13.3-13.3c0-1.7,1.4-3,3-3c1.7,0,3,1.4,3,3v21.8
	c0,13.4,10.8,24.2,24.2,24.2c13.4,0,24.2-10.8,24.2-24.2v-47.4c6.5-2.2,10.9-8.3,10.9-15.2v-0.1h6v-10.3H239.5z M266.9,260.7
	c0,3.2-2.6,5.8-5.8,5.8s-5.8-2.6-5.8-5.8v-0.1h11.5V260.7L266.9,260.7z M283,91.8l-21.8,10.9l-21.8-10.9l-24.1,12l4.6,9.2l4.7-2.4
	l9.3,41.8v43.2h10.3v-44.3l-10.1-45.4l5.3-2.6l21.8,10.9l21.8-10.9l5,2.5l-10.2,45.6v44.3H288v-43.2l9.4-42l5.1,2.5l4.6-9.2
	L283,91.8z M135.6,222.6c0-2.1-0.1-4.2-0.3-6.2l5.9-1l-1.8-10.1l-5.9,1c-1-4-2.5-7.9-4.3-11.6l5.2-3l-5.1-8.9l-5.2,3
	c-2.4-3.4-5-6.6-8-9.5l3.9-4.6l-7.9-6.6l-3.8,4.6c-3.4-2.4-7-4.5-10.7-6.2l2-5.6l-9.7-3.5l-2,5.6c-4.1-1.1-8.4-1.9-12.7-2.2V152H65
	v5.9c-4,0.3-7.9,1-11.8,2.1l-2-5.6l-9.6,3.5l2,5.6c-3.8,1.7-7.4,3.8-10.7,6.2l-3.8-4.6l-7.9,6.6l3.9,4.6c-3,2.9-5.6,6.1-8,9.5
	l-5.2-3l-5.1,8.9l5.2,3c-1.8,3.7-3.2,7.6-4.3,11.6l-5.9-1L0,215.4l5.9,1c-0.2,2-0.3,4.1-0.3,6.2s0.1,4.2,0.3,6.2l-5.9,1l1.8,10.1
	l5.9-1c1,4,2.5,7.9,4.3,11.7l-5.2,3l5.1,8.9l5.2-3c2.4,3.4,5,6.6,8,9.5l-3.9,4.6l7.9,6.6l3.8-4.6c3.4,2.4,7,4.5,10.7,6.2l-2,5.6
	l9.6,3.5l2-5.6c3.9,1.1,7.8,1.8,11.8,2.1v6h10.3v-6c4.3-0.3,8.5-1,12.7-2.2l2,5.6l9.6-3.5l-2-5.6c3.8-1.7,7.4-3.8,10.7-6.2l3.8,4.6
	l7.9-6.6l-3.9-4.6c3-2.9,5.6-6.1,8-9.5l5.2,3l5.1-8.9l-5.2-3c1.8-3.7,3.2-7.6,4.3-11.6l5.9,1l1.8-10.1l-5.9-1
	C135.5,226.8,135.6,224.7,135.6,222.6L135.6,222.6z M70.6,277.3c-30.2,0-54.7-24.6-54.6-54.8c0-30.2,24.6-54.7,54.8-54.6
	c30.2,0,54.6,24.5,54.6,54.7C125.3,252.8,100.8,277.3,70.6,277.3L70.6,277.3z M70.6,201.2c-11.8,0-21.4,9.6-21.4,21.5
	c0,11.8,9.6,21.4,21.5,21.4c11.8,0,21.4-9.6,21.4-21.4C92,210.8,82.4,201.2,70.6,201.2L70.6,201.2z M70.6,233.8
	c-6.2,0-11.2-5-11.2-11.2c0-6.2,5-11.2,11.2-11.2c6.2,0,11.2,5,11.2,11.2C81.8,228.8,76.8,233.8,70.6,233.8L70.6,233.8z M70.6,174
	c-26.9,0-48.6,21.8-48.5,48.7c0,26.9,21.8,48.6,48.7,48.5c26.8,0,48.5-21.8,48.5-48.6C119.2,195.8,97.5,174,70.6,174L70.6,174z
	 M70.6,261c-21.2,0-38.4-17.2-38.3-38.4c0-21.2,17.2-38.4,38.4-38.3c21.2,0,38.3,17.2,38.3,38.4C109,243.8,91.8,261,70.6,261
	L70.6,261z M173.4,305c-0.8-5.2-2.7-10.1-5.8-14.3l4.4-4.4l-7.3-7.3l-4.4,4.4c-4.1-3-8.9-4.9-13.9-5.7v-6.2h-10.3v6.2
	c-5,0.8-9.7,2.8-13.8,5.7l-4.4-4.4l-7.3,7.3l4.4,4.4c-3.1,4.2-5.1,9.1-5.8,14.3h-6v10.2h6.2c0.8,4.8,2.8,9.4,5.7,13.3l-4.4,4.4
	l7.3,7.3l4.4-4.4c4.1,3,8.8,4.9,13.8,5.7v6.5h10.3v-6.5c5-0.8,9.8-2.8,13.9-5.8l4.4,4.4l7.3-7.3l-4.4-4.4c2.9-4,4.8-8.5,5.7-13.3h6
	V305L173.4,305L173.4,305z M141.4,331.7c-12.2,0-22-9.9-22-22.1c0-12.2,9.9-22,22.1-22c12.2,0,22,9.9,22,22.1
	C163.5,321.8,153.6,331.7,141.4,331.7L141.4,331.7z M141.4,293.6c-8.8,0-16,7.2-16,16c0,8.8,7.2,16,16,16c8.8,0,16-7.2,16-16
	C157.4,300.8,150.2,293.6,141.4,293.6L141.4,293.6z M141.4,315.4c-3.2,0-5.7-2.6-5.7-5.8s2.6-5.7,5.8-5.7c3.2,0,5.7,2.6,5.7,5.8
	C147.1,312.8,144.6,315.4,141.4,315.4L141.4,315.4z M173,250.3c-1.6-4.8-5.3-8.6-10.1-10.2v-6.8h-10.3v6.8
	c-4.8,1.6-8.5,5.4-10.1,10.2h-6.3v10.3h6.4c1.7,4.6,5.3,8.2,10,9.8v6.6h10.3v-6.6c4.7-1.6,8.3-5.2,10-9.8h6.4v-10.3H173z M157.7,261
	c-3.2,0-5.8-2.6-5.8-5.8s2.6-5.8,5.8-5.8c3.2,0,5.7,2.6,5.8,5.8C163.5,258.4,160.9,261,157.7,261z M313.3,66.6l-10,2.2
	c0.6,2.8,1.1,5.6,1.4,8.5l10.2-1.1C314.5,73,314,69.8,313.3,66.6z M288.3,23.8l-6,8.3c0.1,0.1,10.7,7.9,17.4,24.7l9.5-3.8
	C301.4,33.3,288.8,24.2,288.3,23.8L288.3,23.8z"/>
</svg>
