<?xml version="1.0" encoding="utf-8"?>
<!-- Generator: Adobe Illustrator 22.1.0, SVG Export Plug-In . SVG Version: 6.00 Build 0)  -->
<svg version="1.1" id="Layer_1" xmlns="http://www.w3.org/2000/svg" xmlns:xlink="http://www.w3.org/1999/xlink" x="0px" y="0px"
	 viewBox="0 0 349 349" enable-background="new 0 0 349 349" xml:space="preserve">
<path opacity="0.3" fill="#FFFFFF" enable-background="new    " d="M326.6,57.5V18.2L340,28.3l6.7-9L321,0l-25.8,19.3l6.7,9
	l13.4-10.1v39.2c0,15.5-12.6,28-28,28h-22.4c-17.4-0.2-32.8,11.3-37.6,28h-8l-0.2,11.2h6.6v17.5c-2.8-0.4-5.6-0.6-8.4-0.7
	c-13,0-25.6,4.4-35.9,12.4c-7.4-7.9-17.8-12.4-28.6-12.4c-3.8,0-7.6,0.6-11.2,1.7v-35.3c0-18.6-15.1-33.6-33.6-33.6h-5.6V63.1H91.1
	v11.2H74.3c-18.6,0-33.6,15.1-33.6,33.6v11.2c0,6.2-5,11.2-11.2,11.2H18.2l10.1-13.5l-9-6.7L0,135.9l19.3,25.8l9-6.7l-10.1-13.5
	h11.2c12.4,0,22.4-10,22.4-22.4v-11.2c0-12.4,10-22.4,22.4-22.4h33.6c12.4,0,22.4,10,22.4,22.4v40.8c-2.5,1.7-4.7,3.7-6.7,5.9
	c-25.2-7.2-51.5,7.5-58.7,32.7c-0.6,2.2-1.1,4.4-1.4,6.7c-25.2,7.5-39.6,34-32.2,59.2c1.5,5.1,3.8,9.8,6.9,14.1
	c-2.2,5.5-3.3,11.3-3.2,17.2c-0.2,26.1,20.9,47.5,47,47.6c2.3,0,4.6-0.1,6.9-0.5c0.4-0.1,0.8-0.1,1.2-0.2c2.1-0.3,4.1-0.8,6.1-1.3
	c16.6,10.7,38,10,53.9-1.6c15,21.6,44.6,26.9,66.2,11.9c3.8-2.6,7.2-5.8,10.1-9.5c7.4,4.5,15.8,6.8,24.4,6.8
	c26.3,0,47.6-21.4,47.7-47.7c0-5.6-1-11.2-3-16.5c11.2-11,16.3-26.9,13.4-42.3h0.8V220h-4.3c-5.7-12.6-16.5-22.1-29.8-26
	c-2.4-22.5-17.5-41.6-38.8-49.1v-20.2c0-15.5,12.6-28,28-28h22.4C309,96.7,326.5,79.1,326.6,57.5z M264.8,198.7l0.2,4.4l4.3,0.9
	c9.8,2,18.4,8,23.6,16.5v10.8h4.5c0.7,2.7,1.1,5.6,1.1,8.4c0,8.8-3.2,17.3-9,23.9c-8.1-11.1-20.8-17.9-35.5-18.9l-0.7,10.5
	c18.6,1.2,33.3,14.7,33.9,36.2c-0.7,19.6-16.8,35.1-36.4,35.2c-8.1,0-16-2.7-22.4-7.7l-2.2-1.8c-7-6.3-11.2-15.1-11.8-24.5
	l-11.2,0.8c0.8,11.7,5.8,22.7,14.3,30.9c-12.6,15.7-35.5,18.2-51.1,5.6c-4.1-3.3-7.5-7.5-9.9-12.3l-3.5-7l-5.5,5.5
	c-10.1,10.1-25.2,13.3-38.5,8.1c13.2-8.8,21.2-23.7,21.2-39.6c0-1.2-0.2-2.4-0.2-3.5c9-1.5,17.3-5.6,24-11.8l-7.6-8.3
	c-5.2,4.7-11.6,7.9-18.6,9c-3.8-11.9-12.1-21.8-23.1-27.6l-5.2,9.9c17.8,9.3,24.7,31.4,15.3,49.2c-4.2,8.1-11.3,14.2-19.9,17.3
	c-1.9,0.7-4,1.2-6,1.6l-0.4,0.1c-2,0.3-4,0.5-6,0.5c-20.1,0-36.4-16.3-36.4-36.4c0-5.4,1.2-10.7,3.5-15.6l1.5-3.2l-2.3-2.8
	c-12.9-15.5-10.7-38.4,4.8-51.3c4.6-3.9,10.2-6.5,16.1-7.7l4.3-0.9l0.2-4.4c0.5-11.8,6.8-22.6,16.7-29v11.1h11.2V165
	c7.1-1.7,14.5-1.2,21.2,1.4l4,1.5l2.5-3.5c0.1-0.1,0.2-0.2,0.3-0.3V192h11.2v-36.8c10.8-4.8,23.5-2.3,31.5,6.4
	c-9.4,10.7-16.1,24.5-16.1,38.9c0,32.5,29.4,58.9,57.5,58.9v-11.2c-22.4,0-46.3-21.4-46.3-47.7c0-11.7,5-23,12.8-31.7l3.2-2.7
	c8.9-8.5,20.6-13.2,32.9-13.3c2.9,0,5.7,0.3,8.6,0.8v21.7c0,15.5-12.6,28-28,28H192v11.2h5.6c21.7,0,39.2-17.6,39.2-39.2V157
	C253.4,164.4,264.2,180.6,264.8,198.7L264.8,198.7z M259.3,220h16.8v11.2h-16.8L259.3,220L259.3,220z M287.3,113.5h16.8v11.2h-16.8
	V113.5z M200.4,119.4l5.7-9.7c-4.1-2.4-7.5-5.7-9.9-9.7l-9.6,5.8C189.9,111.4,194.7,116.1,200.4,119.4L200.4,119.4z M180.8,85.5
	L180.8,85.5c0,0.6,0,1.2,0,1.8L192,86l0-17.3h-11.2L180.8,85.5L180.8,85.5z M180.8,35H192v16.8h-11.2L180.8,35L180.8,35z
	 M323.2,216.6l5.4,9.8c5.7-3.2,10.6-7.7,14.2-13.2l-9.4-6.1C330.8,211.1,327.3,214.3,323.2,216.6L323.2,216.6z M337.8,192
	c0,0.7,0,1.3-0.1,2l11.2,0.8c0.1-0.9,0.1-1.8,0.1-2.8v-16.8h-11.2V192z M253.7,113.5h16.8v11.2h-16.8V113.5z M347.6,142.6l-10.8,2.9
	c0.6,2.4,1,4.8,1,7.3v5.6H349v-5.6C349,149.3,348.5,145.9,347.6,142.6L347.6,142.6z M338.1,125.7c-4.5-4.7-10.2-8.3-16.4-10.3
	l-3.4,10.7c4.5,1.4,8.5,4,11.8,7.4L338.1,125.7z M180.8,18.2H192l13.5,10.1l6.7-9L186.4,0l-25.8,19.3l6.7,9L180.8,18.2z M91.1,29.4
	h11.2v16.8H91.1L91.1,29.4L91.1,29.4z M91.1,130.3h11.2v16.8H91.1L91.1,130.3L91.1,130.3z M91.1,96.7h11.2v16.8H91.1L91.1,96.7
	L91.1,96.7z M91.1,197.6h11.2v16.8H91.1L91.1,197.6L91.1,197.6z M96.7,14l19.1,14.3l6.7-9L96.7,0L70.9,19.3l6.7,9L96.7,14z"/>
</svg>
