<?xml version="1.0" encoding="utf-8"?>
<svg version="1.1" id="Layer_1" xmlns="http://www.w3.org/2000/svg" xmlns:xlink="http://www.w3.org/1999/xlink" x="0px" y="0px"
	 viewBox="0 0 168.1 88" style="enable-background:new 0 0 168.1 88;" xml:space="preserve">
<style type="text/css">
	.st0{fill:#1C4DA1;}
	.st1{fill:#EE2346;}
	.st2{fill:url(#SVGID_1_);}
	.st3{fill:url(#SVGID_2_);}
	.st4{fill:url(#SVGID_3_);}
</style>
<g>
	<g>
		<path class="st0" d="M52.8,33.1c-0.1,2-0.7,3.5-1.7,4.6s-2.5,1.5-4.4,1.5c-2,0-3.5-0.7-4.6-2c-1.1-1.3-1.6-3.2-1.6-5.6v-3
			c0-2.4,0.5-4.3,1.6-5.6c1.1-1.3,2.6-2,4.6-2c1.9,0,3.4,0.5,4.4,1.6c1,1.1,1.6,2.6,1.7,4.6h-3.6c0-1.2-0.2-2.1-0.6-2.6
			c-0.4-0.5-1-0.7-1.9-0.7c-1,0-1.6,0.3-2,1c-0.4,0.7-0.6,1.8-0.6,3.3v3.3c0,1.7,0.2,2.9,0.6,3.6c0.4,0.7,1.1,1,2,1
			c0.9,0,1.6-0.2,1.9-0.7c0.4-0.5,0.6-1.3,0.6-2.5H52.8z"/>
		<path class="st0" d="M58.7,36.1h7.3v3H54.5v-2.1l7.2-12.5h-7.3v-3h11.4v2.1L58.7,36.1z"/>
		<path class="st0" d="M77.2,31.4h-5.5v4.7h6.6v3H68.1V21.4h10.1v3h-6.5v4.2h5.5V31.4z"/>
		<path class="st0" d="M92.2,33.1c-0.1,2-0.7,3.5-1.7,4.6s-2.5,1.5-4.4,1.5c-2,0-3.5-0.7-4.6-2c-1.1-1.3-1.6-3.2-1.6-5.6v-3
			c0-2.4,0.5-4.3,1.6-5.6c1.1-1.3,2.6-2,4.6-2c1.9,0,3.4,0.5,4.4,1.6c1,1.1,1.6,2.6,1.7,4.6h-3.6c0-1.2-0.2-2.1-0.6-2.6
			c-0.4-0.5-1-0.7-1.9-0.7c-1,0-1.6,0.3-2,1c-0.4,0.7-0.6,1.8-0.6,3.3v3.3c0,1.7,0.2,2.9,0.6,3.6c0.4,0.7,1.1,1,2,1
			c0.9,0,1.6-0.2,1.9-0.7c0.4-0.5,0.6-1.3,0.6-2.5H92.2z"/>
		<path class="st0" d="M106.7,39h-3.5v-7.5h-5.2V39h-3.6V21.4h3.6v7.1h5.2v-7.1h3.5V39z"/>
		<path class="st0" d="M44.6,60.2H41V42.6h3.6V60.2z"/>
		<path class="st0" d="M59.9,60.2h-3.6l-5.2-11.5v11.5h-3.6V42.6h3.6l5.2,11.6V42.6h3.5V60.2z"/>
		<path class="st0" d="M75,60.2h-3.6l-5.2-11.5v11.5h-3.6V42.6h3.6l5.2,11.6V42.6H75V60.2z"/>
		<path class="st0" d="M90.3,52.9c0,2.4-0.6,4.2-1.7,5.5s-2.7,2-4.6,2c-2,0-3.5-0.6-4.7-1.9c-1.1-1.3-1.7-3.1-1.7-5.4v-3
			c0-2.4,0.6-4.3,1.7-5.7c1.1-1.4,2.7-2,4.7-2c2,0,3.5,0.7,4.6,2c1.1,1.3,1.7,3.2,1.7,5.6V52.9z M86.7,50c0-1.6-0.2-2.8-0.7-3.5
			c-0.5-0.8-1.2-1.2-2.1-1.2c-0.9,0-1.6,0.4-2.1,1.1c-0.5,0.7-0.7,1.9-0.7,3.4v3.1c0,1.5,0.2,2.7,0.7,3.4c0.5,0.7,1.2,1.1,2.1,1.1
			c0.9,0,1.6-0.4,2.1-1.1c0.5-0.7,0.7-1.8,0.7-3.3V50z"/>
		<path class="st0" d="M98.3,55.3l3-12.8h4l-5.1,17.6h-3.7l-5-17.6h3.9L98.3,55.3z"/>
		<path class="st0" d="M114.4,56.6h-4.8l-0.9,3.6h-3.8l5.5-17.6h3.3l5.5,17.6h-3.8L114.4,56.6z M110.3,53.6h3.3l-1.6-6.3L110.3,53.6
			z"/>
		<path class="st0" d="M130.7,45.5h-4.4v14.6h-3.6V45.5h-4.3v-3h12.2V45.5z"/>
		<path class="st0" d="M136.5,60.2h-3.6V42.6h3.6V60.2z"/>
		<path class="st0" d="M151.8,52.9c0,2.4-0.6,4.2-1.7,5.5s-2.7,2-4.6,2c-2,0-3.5-0.6-4.7-1.9c-1.1-1.3-1.7-3.1-1.7-5.4v-3
			c0-2.4,0.6-4.3,1.7-5.7c1.1-1.4,2.7-2,4.7-2c2,0,3.5,0.7,4.6,2c1.1,1.3,1.7,3.2,1.7,5.6V52.9z M148.3,50c0-1.6-0.2-2.8-0.7-3.5
			c-0.5-0.8-1.2-1.2-2.1-1.2c-0.9,0-1.6,0.4-2.1,1.1c-0.5,0.7-0.7,1.9-0.7,3.4v3.1c0,1.5,0.2,2.7,0.7,3.4c0.5,0.7,1.2,1.1,2.1,1.1
			c0.9,0,1.6-0.4,2.1-1.1c0.5-0.7,0.7-1.8,0.7-3.3V50z"/>
		<path class="st0" d="M166.7,60.2h-3.6l-5.2-11.5v11.5h-3.6V42.6h3.6l5.2,11.6V42.6h3.5V60.2z"/>
		<path class="st0" d="M52.1,75.8c-0.1,2-0.7,3.4-1.6,4.3c-0.9,0.9-2.2,1.4-3.9,1.4c-1.7,0-3-0.6-4-1.9c-1-1.3-1.5-3-1.5-5.2v-3.8
			c0-2.2,0.5-4,1.5-5.2c1-1.3,2.4-1.9,4.1-1.9c1.6,0,2.9,0.5,3.8,1.4c0.9,0.9,1.4,2.4,1.5,4.3h-1.4c-0.1-1.6-0.5-2.7-1.1-3.4
			c-0.6-0.7-1.6-1-2.8-1c-1.3,0-2.4,0.5-3.1,1.5c-0.7,1-1.1,2.4-1.1,4.3v3.8c0,1.9,0.4,3.3,1.1,4.4c0.7,1,1.7,1.6,3,1.6
			c1.4,0,2.4-0.3,3-1s1-1.8,1.1-3.4H52.1z"/>
		<path class="st0" d="M66.4,74.4c0,2.3-0.5,4-1.5,5.3c-1,1.2-2.4,1.9-4.2,1.9c-1.8,0-3.2-0.6-4.2-1.9s-1.5-3-1.5-5.2v-3.8
			c0-2.3,0.5-4,1.5-5.3c1-1.3,2.4-1.9,4.2-1.9c1.8,0,3.2,0.6,4.2,1.9c1,1.3,1.5,3,1.5,5.3V74.4z M65.1,70.6c0-1.9-0.4-3.4-1.1-4.3
			c-0.7-1-1.8-1.5-3.2-1.5c-1.3,0-2.4,0.5-3.2,1.4s-1.1,2.4-1.2,4.3v3.9c0,1.9,0.4,3.4,1.1,4.4c0.8,1,1.8,1.5,3.2,1.5
			c1.4,0,2.5-0.5,3.2-1.5c0.7-1,1.1-2.4,1.1-4.4V70.6z"/>
		<path class="st0" d="M81.2,81.3h-1.4l-8.3-15v15h-1.4V63.7h1.4l8.3,15v-15h1.4V81.3z"/>
		<path class="st0" d="M93.7,77c0-1-0.3-1.8-0.8-2.3c-0.6-0.6-1.6-1.1-3.1-1.6c-1.5-0.5-2.7-1.1-3.4-1.7c-0.9-0.8-1.4-1.9-1.4-3.3
			c0-1.3,0.5-2.4,1.4-3.3c0.9-0.8,2.1-1.3,3.6-1.3c1.5,0,2.7,0.5,3.7,1.5c1,1,1.4,2.2,1.4,3.8h-1.4c0-1.2-0.3-2.1-1-2.9
			s-1.6-1.1-2.7-1.1c-1.1,0-2,0.3-2.6,0.9s-1,1.4-1,2.3c0,0.9,0.3,1.6,0.9,2.2c0.6,0.6,1.6,1.1,2.9,1.5s2.3,0.9,3,1.4
			c0.7,0.5,1.2,1,1.5,1.7c0.3,0.6,0.5,1.4,0.5,2.2c0,1.4-0.5,2.5-1.4,3.3c-0.9,0.8-2.2,1.3-3.7,1.3c-1,0-2-0.2-2.8-0.6
			c-0.9-0.4-1.5-1-2-1.8s-0.7-1.7-0.7-2.8h1.4c0,1.2,0.4,2.2,1.1,2.9c0.8,0.7,1.8,1.1,3,1.1c1.1,0,2-0.3,2.7-0.9S93.7,78,93.7,77z"
			/>
		<path class="st0" d="M108.4,63.7v12.5c0,1.7-0.5,3-1.4,4c-0.9,0.9-2.2,1.4-3.9,1.4c-1.7,0-3-0.5-3.9-1.4c-0.9-0.9-1.3-2.3-1.3-4
			V63.7h1.4v12.4c0,2.8,1.3,4.2,3.9,4.2c2.5,0,3.8-1.3,3.8-4V63.7H108.4z"/>
		<path class="st0" d="M113.7,80h7.3v1.3h-8.6V63.7h1.4V80z"/>
		<path class="st0" d="M130.5,65h-5v16.3h-1.4V65h-5v-1.3h11.4V65z"/>
		<path class="st0" d="M135,81.3h-1.4V63.7h1.4V81.3z"/>
		<path class="st0" d="M150.5,81.3h-1.4l-8.3-15v15h-1.4V63.7h1.4l8.3,15v-15h1.4V81.3z"/>
		<path class="st0" d="M165.4,79.3c-0.6,0.8-1.3,1.3-2.2,1.7c-0.9,0.4-1.9,0.6-2.9,0.6c-1.8,0-3.2-0.6-4.3-1.8c-1-1.2-1.6-2.9-1.6-5
			v-4.3c0-2.2,0.5-4,1.5-5.2c1-1.2,2.4-1.8,4.2-1.8c1.6,0,2.9,0.4,3.8,1.3c0.9,0.9,1.4,2.2,1.5,3.9H164c-0.1-1.4-0.5-2.3-1.2-3
			c-0.6-0.6-1.6-0.9-2.8-0.9c-1.4,0-2.5,0.5-3.2,1.4c-0.7,1-1.1,2.4-1.1,4.2v4.1c0,1.8,0.4,3.3,1.2,4.3c0.8,1,1.9,1.5,3.3,1.5
			c1.5,0,2.8-0.5,3.8-1.5v-4.6h-3.9v-1.3h5.2V79.3z"/>
	</g>
	<rect x="22.8" class="st1" width="10.6" height="10.8"/>
	<radialGradient id="SVGID_1_" cx="18.5169" cy="4.2185" r="26.6157" gradientUnits="userSpaceOnUse">
		<stop  offset="0" style="stop-color:#1C4E9F"/>
		<stop  offset="1" style="stop-color:#2B3379"/>
	</radialGradient>
	<polygon class="st2" points="0,0 0,60.2 10.6,60.2 21.2,60.2 21.2,49.4 10.6,49.4 10.6,10.8 21.2,10.8 21.2,0 10.6,0 	"/>
	<linearGradient id="SVGID_2_" gradientUnits="userSpaceOnUse" x1="28.1377" y1="60.1728" x2="28.1377" y2="21.5077">
		<stop  offset="0" style="stop-color:#ED2648"/>
		<stop  offset="1" style="stop-color:#ED2648"/>
	</linearGradient>
	<rect x="22.8" y="21.5" class="st3" width="10.6" height="38.7"/>
	<linearGradient id="SVGID_3_" gradientUnits="userSpaceOnUse" x1="13.7728" y1="5.3769" x2="21.163" y2="5.3769">
		<stop  offset="0" style="stop-color:#3B56A6;stop-opacity:0"/>
		<stop  offset="1" style="stop-color:#223066"/>
	</linearGradient>
	<rect x="13.8" class="st4" width="7.4" height="10.8"/>
</g>
</svg>
